<svg xmlns="http://www.w3.org/2000/svg" xmlns:xlink="http://www.w3.org/1999/xlink" viewBox="0,0,256,256" width="50px" height="50px" fill-rule="nonzero"><g fill="#ffe81f" fill-rule="nonzero" stroke="none" stroke-width="1" stroke-linecap="butt" stroke-linejoin="miter" stroke-miterlimit="10" stroke-dasharray="" stroke-dashoffset="0" font-family="none" font-weight="none" font-size="none" text-anchor="none" style="mix-blend-mode: normal"><g transform="scale(5.12,5.12)"><path d="M45,2c-0.80078,0 -1.55469,0.3125 -2.12109,0.87891l-21.87891,21.87891v2.82813l23.29297,-23.29297c0.19531,-0.19531 0.44922,-0.29297 0.70703,-0.29297c0.25781,0 0.51172,0.09766 0.70703,0.29297c0.39063,0.39063 0.39063,1.02344 0,1.41406l-24.70703,24.70703v2.82813l26.12109,-26.12109c0.56641,-0.56641 0.87891,-1.32031 0.87891,-2.12109c0,-0.80078 -0.3125,-1.55469 -0.87891,-2.12109c-0.56641,-0.56641 -1.32031,-0.87891 -2.12109,-0.87891zM19,26.36328l-8.32422,8.3125l-1.67578,-1.67578l-3,3l1.67578,1.67578l-5.67578,5.66797l1.32813,1.32813l-1.32812,1.32813l2,2l1.32813,-1.32812l1.32813,1.32813l12.34375,-12.32812zM17,31.1875v3.65625l-0.87109,0.87109l-1.82812,-1.82812zM12.88672,35.29688l1.82813,1.82813l-8.05859,8.04688l-1.82812,-1.82812z"></path></g></g></svg>